<svg xmlns="http://www.w3.org/2000/svg" width="30.664" height="19.369" viewBox="0 0 30.664 19.369">
  <g id="Group_1280" data-name="Group 1280" transform="translate(0.504 0.528)">
    <path id="Path_1369" data-name="Path 1369" d="M111.9,17.879a9.164,9.164,0,0,1-14.613-5.336A8.941,8.941,0,0,1,99.729,4.22a8.742,8.742,0,0,1,5.449-2.664,9.04,9.04,0,0,1,6.692,1.854.2.2,0,0,1,.028.03.075.075,0,0,1,0,.064.63.63,0,0,1-.171.179,8.965,8.965,0,0,0-3.158,5.682,9.065,9.065,0,0,0,3.091,8.2.8.8,0,0,1,.248.248A.084.084,0,0,1,111.9,17.879Z" transform="translate(-97.083 -1.479)" fill="#e72529" stroke="rgba(0,0,0,0)" stroke-width="1"/>
    <path id="Path_1370" data-name="Path 1370" d="M122.974,17.87a.068.068,0,0,1,0-.03c.017-.083.083-.125.141-.173a9.155,9.155,0,0,0,2.283-2.818,8.831,8.831,0,0,0,.938-2.969,8.963,8.963,0,0,0-.971-5.493,9.287,9.287,0,0,0-1.3-1.855,10.989,10.989,0,0,0-.965-.919.334.334,0,0,1-.12-.141.148.148,0,0,1,0-.039,9.67,9.67,0,0,1,3.158-1.6A9.16,9.16,0,0,1,137.619,8.8a8.859,8.859,0,0,1-2.713,8.526,8.822,8.822,0,0,1-7.153,2.434,8.924,8.924,0,0,1-4.622-1.794C123.083,17.932,123.027,17.9,122.974,17.87Z" transform="translate(-108.161 -1.47)" fill="#f39c22" stroke="rgba(0,0,0,0)" stroke-width="1"/>
    <path id="Path_1371" data-name="Path 1371" d="M120.374,4.967a4.763,4.763,0,0,1,.923.8,9.124,9.124,0,0,1,1.221,1.577,9.03,9.03,0,0,1,1.233,3.292A9.145,9.145,0,0,1,120.9,18.9c-.168.155-.352.292-.529.437a12.114,12.114,0,0,1-.987-.921,9.1,9.1,0,0,1-2.148-3.779,9.166,9.166,0,0,1,.362-6.019,9.646,9.646,0,0,1,1.457-2.389A7.626,7.626,0,0,1,120.374,4.967Z" transform="translate(-105.559 -2.967)" fill="#ef6324" stroke="rgba(0,0,0,0)" stroke-width="1"/>
    <g id="Group_1279" data-name="Group 1279" transform="translate(28.498 14.549)">
      <path id="Path_1372" data-name="Path 1372" d="M147.029,27.248v-.289h-.134V26.9h.359v.059h-.134v.289Z" transform="translate(-146.895 -26.9)" fill="#f39c22" stroke="rgba(0,0,0,0)" stroke-width="1"/>
      <path id="Path_1373" data-name="Path 1373" d="M147.624,27.248V26.9h.137l.082.237.081-.237h.137v.348h-.085v-.273l-.09.273H147.8l-.089-.273v.273Z" transform="translate(-147.207 -26.9)" fill="#f39c22" stroke="rgba(0,0,0,0)" stroke-width="1"/>
    </g>
  </g>
</svg>
