<svg width="259" height="84" viewBox="0 0 259 84" fill="none" xmlns="http://www.w3.org/2000/svg">
<path d="M76.14 1.48L54.42 56.39L45.63 9.7C44.6 4.49 40.53 1.48 36 1.48H0.49L0 3.82C7.29 5.41 15.57 7.96 20.59 10.69C23.66 12.36 24.54 13.81 25.55 17.78L42.19 82.16H64.25L98.06 1.48H76.14ZM107.02 1.48L89.76 82.15H110.63L127.88 1.48H107.02ZM226.67 23.28L232.99 53.57H215.68L226.67 23.28ZM223.61 1.48C219.6 1.48 216.22 3.81 214.73 7.4L183.41 82.16H205.32L209.67 70.11H236.44L238.96 82.16H258.26L241.42 1.48H223.61V1.48ZM133.56 26.67C133.42 38.29 143.92 44.76 151.83 48.63C159.96 52.58 162.68 55.12 162.65 58.66C162.59 64.07 156.16 66.46 150.16 66.55C139.67 66.71 133.58 63.72 128.73 61.45L124.95 79.13C129.82 81.37 138.82 83.32 148.16 83.42C170.09 83.42 184.42 72.59 184.49 55.82C184.58 34.53 155.05 33.36 155.25 23.84C155.32 20.95 158.07 17.87 164.1 17.08C167.09 16.69 175.34 16.39 184.67 20.69L188.34 3.58C183.32 1.76 176.86 0 168.81 0C148.18 0 133.67 10.97 133.55 26.66" fill="#1434CA"/>
</svg>
